<?xml version="1.0" standalone="no"?>
<!DOCTYPE svg PUBLIC "-//W3C//DTD SVG 20010904//EN"
 "http://www.w3.org/TR/2001/REC-SVG-20010904/DTD/svg10.dtd">
<svg version="1.0" xmlns="http://www.w3.org/2000/svg"
 width="466.000000pt" height="466.000000pt" viewBox="0 0 466.000000 466.000000"
 preserveAspectRatio="xMidYMid meet">
<metadata>
Created by potrace 1.14, written by Peter Selinger 2001-2017
</metadata>
<g transform="translate(0.000000,466.000000) scale(0.100000,-0.100000)"
fill="#000000" stroke="none">
<path d="M1770 4620 l0 -40 -75 0 -75 0 0 -35 c0 -34 -1 -35 -40 -35 l-40 0 0
-40 c0 -39 -1 -40 -35 -40 -33 0 -35 -2 -35 -35 l0 -35 -225 0 -225 0 0 -75 0
-75 -40 0 -40 0 0 -75 0 -75 -75 0 -75 0 0 -40 c0 -39 -1 -40 -35 -40 -33 0
-35 -2 -35 -35 0 -34 -1 -35 -40 -35 l-40 0 0 -40 0 -40 -75 0 -75 0 0 -75 0
-75 -35 0 c-33 0 -35 -2 -35 -35 l0 -35 -75 0 -75 0 0 -225 0 -225 -40 0 -40
0 0 -40 0 -40 -75 0 -75 0 0 -750 0 -750 75 0 75 0 0 -35 c0 -34 1 -35 40 -35
l40 0 0 -265 0 -265 35 0 c33 0 35 -2 35 -35 0 -34 1 -35 40 -35 l40 0 0 -40
c0 -39 1 -40 35 -40 33 0 35 -2 35 -35 0 -34 1 -35 40 -35 l40 0 0 -40 c0 -39
1 -40 35 -40 33 0 35 -2 35 -35 l0 -35 75 0 75 0 0 -75 0 -75 40 0 40 0 0 -40
c0 -39 1 -40 35 -40 33 0 35 -2 35 -35 0 -34 1 -35 40 -35 l40 0 0 -40 0 -40
260 0 260 0 0 -75 0 -75 40 0 40 0 0 -40 0 -40 710 0 710 0 0 40 0 40 40 0 40
0 0 40 c0 39 1 40 35 40 l35 0 0 75 0 75 300 0 300 0 0 35 c0 34 1 35 40 35
l40 0 0 75 0 75 35 0 c34 0 35 1 35 40 l0 40 75 0 75 0 0 75 0 75 40 0 c39 0
40 1 40 35 0 33 2 35 35 35 34 0 35 1 35 40 l0 40 75 0 75 0 0 225 0 225 75 0
75 0 0 35 c0 34 1 35 40 35 l40 0 0 825 0 825 -75 0 -75 0 0 225 0 225 -40 0
-40 0 0 40 c0 39 -1 40 -35 40 -33 0 -35 2 -35 35 0 34 -1 35 -40 35 l-40 0 0
40 0 40 -75 0 -75 0 0 75 0 75 -35 0 c-33 0 -35 2 -35 35 0 34 -1 35 -40 35
l-40 0 0 40 c0 39 -1 40 -35 40 l-35 0 0 75 0 75 -40 0 c-39 0 -40 1 -40 35 0
33 -2 35 -35 35 -34 0 -35 1 -35 40 l0 40 -190 0 -190 0 0 35 c0 33 -2 35 -35
35 -34 0 -35 1 -35 40 l0 40 -40 0 c-39 0 -40 1 -40 35 l0 35 -75 0 -75 0 0
40 0 40 -635 0 -635 0 0 -40z m1350 -225 c0 -33 2 -35 35 -35 l35 0 0 -75 0
-75 225 0 225 0 0 -40 0 -40 75 0 75 0 0 -75 0 -75 40 0 c39 0 40 -1 40 -35 0
-33 2 -35 35 -35 l35 0 0 -115 0 -115 75 0 75 0 0 -35 0 -35 75 0 75 0 0 -40
0 -40 40 0 40 0 0 -260 0 -260 75 0 75 0 0 -750 0 -750 -40 0 -40 0 0 -40 0
-40 -75 0 -75 0 0 -225 0 -225 -75 0 -75 0 0 -35 c0 -33 -2 -35 -35 -35 l-35
0 0 -75 0 -75 -40 0 -40 0 0 -40 0 -40 -75 0 -75 0 0 -75 0 -75 -35 0 c-33 0
-35 -2 -35 -35 l0 -35 -300 0 -300 0 0 -115 0 -115 -750 0 -750 0 0 75 0 75
-265 0 -265 0 0 40 c0 39 -1 40 -35 40 -33 0 -35 2 -35 35 0 34 -1 35 -40 35
l-40 0 0 75 0 75 -35 0 c-34 0 -35 1 -35 40 l0 40 -40 0 c-39 0 -40 1 -40 35
0 33 -2 35 -35 35 -34 0 -35 1 -35 40 l0 40 -75 0 -75 0 0 35 c0 34 -1 35 -40
35 l-40 0 0 75 0 75 -35 0 -35 0 0 225 0 225 -40 0 -40 0 0 40 0 40 -75 0 -75
0 0 675 0 675 75 0 75 0 0 75 0 75 40 0 40 0 0 185 0 185 75 0 75 0 0 75 0 75
35 0 c34 0 35 1 35 40 l0 40 40 0 c39 0 40 1 40 35 0 33 2 35 35 35 34 0 35 1
35 40 l0 40 75 0 75 0 0 35 c0 34 1 35 40 35 l40 0 0 40 c0 39 1 40 35 40 l35
0 0 75 0 75 265 0 265 0 0 35 c0 33 2 35 35 35 34 0 35 1 35 40 l0 40 40 0
c39 0 40 1 40 35 l0 35 675 0 675 0 0 -35z"/>
<path d="M2290 3980 l0 -300 40 0 40 0 0 300 0 300 -40 0 -40 0 0 -300z"/>
<path d="M1990 3905 l0 -225 40 0 40 0 0 225 0 225 -40 0 -40 0 0 -225z"/>
<path d="M2590 3905 l0 -225 40 0 40 0 0 225 0 225 -40 0 -40 0 0 -225z"/>
<path d="M1620 3495 c0 -34 -1 -35 -40 -35 l-40 0 0 -40 c0 -39 -1 -40 -35
-40 -33 0 -35 -2 -35 -35 0 -34 -1 -35 -40 -35 l-40 0 0 -40 c0 -39 -1 -40
-35 -40 l-35 0 0 -825 0 -825 35 0 c33 0 35 -2 35 -35 0 -34 1 -35 40 -35 l40
0 0 -75 0 -75 35 0 35 0 0 -75 0 -75 40 0 40 0 0 -40 0 -40 675 0 675 0 0 75
0 75 35 0 c34 0 35 1 35 40 l0 40 40 0 40 0 0 75 0 75 35 0 c33 0 35 2 35 35
l0 35 190 0 190 0 0 40 0 40 75 0 75 0 0 635 0 635 -40 0 -40 0 0 40 0 40
-185 0 -185 0 0 110 0 110 -40 0 -40 0 0 40 c0 39 -1 40 -35 40 -33 0 -35 2
-35 35 0 34 -1 35 -40 35 l-40 0 0 40 c0 39 -1 40 -35 40 -33 0 -35 2 -35 35
l0 35 -675 0 -675 0 0 -35z m1350 -150 c0 -33 2 -35 35 -35 34 0 35 -1 35 -40
l0 -40 40 0 c39 0 40 -1 40 -35 0 -33 2 -35 35 -35 l35 0 0 -750 0 -750 -35 0
c-34 0 -35 -1 -35 -40 l0 -40 -40 0 -40 0 0 -75 0 -75 -35 0 c-33 0 -35 -2
-35 -35 0 -34 -1 -35 -40 -35 l-40 0 0 -75 0 -75 -600 0 -600 0 0 35 c0 33 -2
35 -35 35 -34 0 -35 1 -35 40 l0 40 -40 0 -40 0 0 110 0 110 -35 0 -35 0 0
825 0 825 35 0 c34 0 35 1 35 40 l0 40 40 0 c39 0 40 1 40 35 l0 35 675 0 675
0 0 -35z m600 -450 c0 -33 2 -35 35 -35 l35 0 0 -565 0 -565 -75 0 -75 0 0
-35 0 -35 -110 0 -110 0 0 150 0 150 35 0 c33 0 35 2 35 35 0 34 1 35 40 35
l40 0 0 300 0 300 -40 0 -40 0 0 40 c0 39 -1 40 -35 40 l-35 0 0 110 0 110
150 0 150 0 0 -35z"/>
<path d="M1840 3085 l0 -75 -75 0 -75 0 0 -75 0 -75 40 0 40 0 0 -40 c0 -39 1
-40 35 -40 33 0 35 -2 35 -35 l0 -35 450 0 450 0 0 35 c0 34 1 35 40 35 l40 0
0 40 c0 39 1 40 35 40 l35 0 0 75 0 75 -75 0 -75 0 0 75 0 75 -450 0 -450 0 0
-75z"/>
<path d="M2070 2220 c0 -39 1 -40 35 -40 l35 0 0 -185 0 -185 -35 0 c-34 0
-35 -1 -35 -40 l0 -40 110 0 110 0 0 40 c0 39 -1 40 -35 40 l-35 0 0 110 0
110 35 0 c33 0 35 -2 35 -35 0 -34 1 -35 40 -35 l40 0 0 -40 c0 -39 1 -40 35
-40 l35 0 0 -75 0 -75 75 0 75 0 0 40 c0 39 -1 40 -35 40 -33 0 -35 2 -35 35
0 34 -1 35 -40 35 l-40 0 0 40 c0 39 -1 40 -35 40 l-35 0 0 75 0 75 35 0 c33
0 35 2 35 35 0 34 1 35 40 35 l40 0 0 40 0 40 -75 0 -75 0 0 -75 0 -75 -75 0
-75 0 0 75 0 75 -75 0 -75 0 0 -40z"/>
</g>
</svg>
